<?xml version="1.0" encoding="UTF-8" standalone="no"?>
<!-- Created with Inkscape (http://www.inkscape.org/) -->

<svg
   width="47.397377mm"
   height="38.946507mm"
   viewBox="0 0 47.397377 38.946507"
   version="1.1"
   id="svg5"
   xmlns="http://www.w3.org/2000/svg"
   xmlns:svg="http://www.w3.org/2000/svg">
  <defs
     id="defs2" />
  <g
     id="layer1"
     transform="translate(-70.077547,-74.76663)">
    <path
       id="path846"
       style="fill:#000000;fill-opacity:0.995121;stroke-width:12.7352;stroke-linecap:round;paint-order:fill markers stroke"
       d="m 306.10156,282.58398 a 82.590365,55.02381 52.529514 0 0 -16.14453,3.06055 82.590365,55.02381 52.529514 0 0 -11.35351,90.24609 l 3.12109,5.16016 a 82.590365,55.02381 52.529514 0 0 49.0293,43.08984 55.02381,82.590365 37.470486 0 0 3.31445,1.76368 55.02381,82.590365 37.470486 0 0 20.4043,3.84179 82.590365,55.02381 52.529514 0 0 20.31836,-3.84179 82.590365,55.02381 52.529514 0 0 3.1914,-1.6836 55.02381,82.590365 37.470486 0 0 49.15235,-43.16992 l 3.12109,-5.16016 a 55.02381,82.590365 37.470486 0 0 -11.35156,-90.24609 55.02381,82.590365 37.470486 0 0 -64.47461,16.0293 82.590365,55.02381 52.529514 0 0 -48.32813,-19.08985 z"
       transform="scale(0.26458333)" />
  </g>
</svg>
